{
	"meshes":[{
		"name":"car_055",
		"primitives":[{
			"attributes":{
				"POSITION":1,
				"NORMAL":2,
				"TEXCOORD_0":3
			},
			"indices":0,
			"material":0
		}]
	},
	{
		"name":"tire_055",
		"primitives":[{
			"attributes":{
				"POSITION":5,
				"NORMAL":6,
				"TEXCOORD_0":7
			},
			"indices":4,
			"material":0
		}]
	}],
	"asset":{
		"version":"2.0",
		"generator":"Blender Foundation Blender (stable FBX IO) 2.93.5"
	},
	"scenes":[{
		"nodes":[0]
	}],
	"accessors":[{
		"bufferView":0,
		"type":"SCALAR",
		"componentType":5123,
		"count":2844,
		"min":[0],
		"byteOffset":0,
		"max":[2843]
	},
	{
		"bufferView":1,
		"type":"VEC3",
		"componentType":5126,
		"count":2844,
		"min":[-0.011242167092859745,
		-0.008711605332791806,
		-0.009999999776482582],
		"byteOffset":0,
		"max":[0.011242167092859745,
		0.011965452693402768,
		0.021525686606764795]
	},
	{
		"bufferView":1,
		"type":"VEC3",
		"componentType":5126,
		"count":2844,
		"min":[-1.0,
		-1.0,
		-1.0],
		"byteOffset":12,
		"max":[1.0,
		1.0,
		1.0]
	},
	{
		"bufferView":1,
		"type":"VEC2",
		"componentType":5126,
		"count":2844,
		"min":[0.2828383147716522,
		0.02943629026412964],
		"byteOffset":24,
		"max":[0.9678919315338135,
		0.463386595249176]
	},
	{
		"bufferView":2,
		"type":"SCALAR",
		"componentType":5123,
		"count":1104,
		"min":[0],
		"byteOffset":0,
		"max":[1103]
	},
	{
		"bufferView":3,
		"type":"VEC3",
		"componentType":5126,
		"count":1104,
		"min":[0.006484923418611288,
		-0.013428084552288056,
		-0.009588075801730156],
		"byteOffset":0,
		"max":[0.013732625171542168,
		0.013428076170384884,
		0.009588067419826985]
	},
	{
		"bufferView":3,
		"type":"VEC3",
		"componentType":5126,
		"count":1104,
		"min":[-0.9659261703491211,
		-0.9659261703491211,
		-1.0],
		"byteOffset":12,
		"max":[0.9659261703491211,
		0.9659261703491211,
		1.0]
	},
	{
		"bufferView":3,
		"type":"VEC2",
		"componentType":5126,
		"count":1104,
		"min":[0.32064521312713625,
		0.03007197380065918],
		"byteOffset":24,
		"max":[0.96875,
		0.037109375]
	}],
	"nodes":[{
		"name":"car_055",
		"mesh":0,
		"translation":[0.0,
		0.0,
		0.0],
		"rotation":[0.0,
		0.0,
		0.0,
		-1.0],
		"scale":[100.0,
		100.0,
		100.0],
		"children":[1]
	},
	{
		"name":"tire_055",
		"mesh":1,
		"translation":[-7.321945919578146e-14,
		0.0014019364025443793,
		0.005414123646914959],
		"rotation":[-0.49999988079071047,
		0.5000001192092896,
		-0.49999988079071047,
		0.5000001192092896],
		"scale":[1.0,
		1.0000001192092896,
		1.0000001192092896]
	}],
	"bufferViews":[{
		"buffer":0,
		"byteOffset":0,
		"byteLength":5688,
		"target":34963
	},
	{
		"buffer":0,
		"byteOffset":5688,
		"byteLength":91008,
		"target":34962,
		"byteStride":32
	},
	{
		"buffer":1,
		"byteOffset":0,
		"byteLength":2208,
		"target":34963
	},
	{
		"buffer":1,
		"byteOffset":2208,
		"byteLength":35328,
		"target":34962,
		"byteStride":32
	}],
	"buffers":[{
		"uri":"data:application/octet-stream;base64,",
		"byteLength":96696
	},
	{
		"uri":"data:application/octet-stream;base64,",
		"byteLength":37536
	}],
	"materials":[{
		"pbrMetallicRoughness":{
			"baseColorTexture":{
				"index":0
			},
			"baseColorFactor":[1.0,
			1.0,
			1.0,
			1.0],
			"metallicFactor":0.0,
			"roughnessFactor":0.4830075027221463
		},
		"alphaMode":"OPAQUE",
		"emissiveFactor":[0.0,
		0.0,
		0.0],
		"doubleSided":false,
		"name":"Mat1"
	}],
	"images":[{
		"uri":"data:image/png;base64,"
	}],
	"textures":[{
		"sampler":0,
		"source":0
	}],
	"samplers":[{
		"magFilter":9729,
		"minFilter":9729,
		"wrapS":10497,
		"wrapT":10497
	}]
}