{
	"asset":{
		"version":"2.0",
		"generator":"Maxon Cinema 4D 2024.1.0 (#200000219)"
	},
	"scenes":[{
		"nodes":[0,
		1,
		2,
		3]
	}],
	"nodes":[{
		"name":"Platform",
		"mesh":0
	},
	{
		"rotation":[0.0,
		0.0,
		0.0,
		-1.0],
		"name":"Ruby",
		"scale":[1.0,
		1.0,
		1.0],
		"translation":[0.0,
		1.645326018333435,
		-4.760669708251953],
		"children":[4,
		5]
	},
	{
		"rotation":[0.0,
		0.0,
		0.0,
		-1.0],
		"name":"Ruby2",
		"scale":[1.0,
		1.0,
		1.0],
		"translation":[5.5021586418151859,
		1.645326018333435,
		0.8276963829994202],
		"children":[6,
		7]
	},
	{
		"rotation":[0.0,
		0.0,
		0.0,
		-1.0],
		"name":"Ruby3",
		"scale":[1.0,
		1.0,
		1.0],
		"translation":[0.35100823640823367,
		1.645326018333435,
		5.542588233947754],
		"children":[8,
		9]
	},
	{
		"name":"RubyMesh",
		"mesh":1
	},
	{
		"name":"BoxCollider",
		"extras": {
        	"metadata": {
          		"gameObjectID": 1,
				"components": []
        	}
		},
		"children":[10]
	},
	{
		"name":"RubyMesh",
		"mesh":1
	},
	{
		"name":"BoxCollider",
		"children":[11]
	},
	{
		"name":"RubyMesh",
		"mesh":1
	},
	{
		"name":"BoxCollider",
		"children":[12]
	},
	{
		"name":"Cube",
		"mesh":2
	},
	{
		"name":"Cube",
		"mesh":2
	},
	{
		"name":"Cube",
		"mesh":2
	}],
	"meshes":[{
		"name":"Platform",
		"primitives":[{
			"attributes":{
				"POSITION":1,
				"NORMAL":2,
				"TEXCOORD_0":3
			},
			"indices":0,
			"material":0
		}]
	},
	{
		"name":"RubyMesh",
		"primitives":[{
			"attributes":{
				"POSITION":5,
				"NORMAL":6,
				"TEXCOORD_0":7
			},
			"indices":4,
			"material":1
		}]
	},
	{
		"name":"Cube",
		"primitives":[{
			"attributes":{
				"POSITION":9,
				"NORMAL":10,
				"TEXCOORD_0":11
			},
			"indices":8
		}]
	}],
	"accessors":[{
		"bufferView":0,
		"type":"SCALAR",
		"componentType":5123,
		"count":288,
		"byteOffset":0,
		"min":[0],
		"max":[287]
	},
	{
		"bufferView":1,
		"type":"VEC3",
		"componentType":5126,
		"count":288,
		"byteOffset":0,
		"min":[-6.554999828338623,
		0.0,
		-6.554999828338623],
		"max":[6.554999828338623,
		0.7850000262260437,
		6.554999828338623]
	},
	{
		"bufferView":1,
		"type":"VEC3",
		"componentType":5126,
		"count":288,
		"byteOffset":12,
		"min":[-0.6432316899299622,
		-0.8923067450523377,
		-0.6432316899299622],
		"max":[0.6432316899299622,
		1.0,
		0.6432316899299622]
	},
	{
		"bufferView":1,
		"type":"VEC2",
		"componentType":5126,
		"count":288,
		"byteOffset":24,
		"min":[0.0,
		0.0],
		"max":[1.0,
		1.0]
	},
	{
		"bufferView":2,
		"type":"SCALAR",
		"componentType":5123,
		"count":24,
		"byteOffset":0,
		"min":[0],
		"max":[23]
	},
	{
		"bufferView":3,
		"type":"VEC3",
		"componentType":5126,
		"count":24,
		"byteOffset":0,
		"min":[-0.6895260214805603,
		-0.6895260214805603,
		-0.6895260214805603],
		"max":[0.6895260214805603,
		0.6895260214805603,
		0.6895260214805603]
	},
	{
		"bufferView":3,
		"type":"VEC3",
		"componentType":5126,
		"count":24,
		"byteOffset":12,
		"min":[-0.5773503184318543,
		-0.5773503184318543,
		-0.5773503184318543],
		"max":[0.5773503184318543,
		0.5773503184318543,
		0.5773503184318543]
	},
	{
		"bufferView":3,
		"type":"VEC2",
		"componentType":5126,
		"count":24,
		"byteOffset":24,
		"min":[0.0,
		0.0],
		"max":[1.0,
		0.8669999837875366]
	},
	{
		"bufferView":4,
		"type":"SCALAR",
		"componentType":5123,
		"count":36,
		"byteOffset":0,
		"min":[0],
		"max":[35]
	},
	{
		"bufferView":5,
		"type":"VEC3",
		"componentType":5126,
		"count":36,
		"byteOffset":0,
		"min":[-0.32961583137512209,
		-0.40388157963752749,
		-0.39517900347709658],
		"max":[0.32961583137512209,
		0.40388157963752749,
		0.39517900347709658]
	},
	{
		"bufferView":5,
		"type":"VEC3",
		"componentType":5126,
		"count":36,
		"byteOffset":12,
		"min":[-1.0,
		-1.0,
		-1.0],
		"max":[1.0,
		1.0,
		1.0]
	},
	{
		"bufferView":5,
		"type":"VEC2",
		"componentType":5126,
		"count":36,
		"byteOffset":24,
		"min":[0.0,
		0.0],
		"max":[1.0,
		1.0]
	}],
	"bufferViews":[{
		"buffer":0,
		"byteOffset":0,
		"byteLength":576,
		"target":34963
	},
	{
		"buffer":0,
		"byteOffset":576,
		"byteLength":9216,
		"target":34962,
		"byteStride":32
	},
	{
		"buffer":1,
		"byteOffset":0,
		"byteLength":48,
		"target":34963
	},
	{
		"buffer":1,
		"byteOffset":48,
		"byteLength":768,
		"target":34962,
		"byteStride":32
	},
	{
		"buffer":2,
		"byteOffset":0,
		"byteLength":72,
		"target":34963
	},
	{
		"buffer":2,
		"byteOffset":72,
		"byteLength":1152,
		"target":34962,
		"byteStride":32
	}],
	"buffers":[{
		"uri":"data:application/octet-stream;base64,",
		"byteLength":9792
	},
	{
		"uri":"data:application/octet-stream;base64,",
		"byteLength":816
	},
	{
		"uri":"data:application/octet-stream;base64,",
		"byteLength":1224
	}],
	"materials":[{
		"pbrMetallicRoughness":{
			"baseColorFactor":[0.009112709832134258,
			0.0,
			0.1366906474820143,
			1.0],
			"metallicFactor":0.0,
			"roughnessFactor":0.20000000298023225
		},
		"emissiveFactor":[0.0,
		0.0,
		0.0],
		"alphaMode":"OPAQUE",
		"doubleSided":false,
		"name":"PlatformMat"
	},
	{
		"pbrMetallicRoughness":{
			"baseColorFactor":[0.6546762589928057,
			0.06593861601366383,
			0.08556320411296799,
			1.0],
			"metallicFactor":0.0,
			"roughnessFactor":0.6960000330582261
		},
		"emissiveFactor":[0.0,
		0.0,
		0.0],
		"alphaMode":"OPAQUE",
		"doubleSided":false,
		"name":"RubyMat"
	}]
}